<svg xmlns="http://www.w3.org/2000/svg" xmlns:xlink="http://www.w3.org/1999/xlink" width="1000" zoomAndPan="magnify" viewBox="0 0 750 749.999995" height="1000" preserveAspectRatio="xMidYMid meet" version="1.0"><defs><clipPath id="c3334a667e"><path d="M 96.378906 32 L 653.628906 32 L 653.628906 718 L 96.378906 718 Z M 96.378906 32 " clip-rule="nonzero"/></clipPath></defs><g clip-path="url(#c3334a667e)"><path fill="#037d7f" d="M 160.863281 32.476562 L 216.113281 32.476562 L 216.113281 91.546875 C 216.113281 135.917969 252.285156 172.089844 296.65625 172.089844 L 453.597656 172.089844 C 497.96875 172.089844 534.140625 135.917969 534.140625 91.546875 L 534.140625 32.476562 L 589.390625 32.476562 C 624.804688 32.476562 653.746094 61.4375 653.746094 96.855469 L 653.746094 653.25 C 653.746094 688.644531 624.78125 717.609375 589.390625 717.609375 L 160.84375 717.609375 C 125.425781 717.609375 96.484375 688.644531 96.484375 653.25 L 96.484375 96.855469 C 96.484375 61.4375 125.449219 32.476562 160.84375 32.476562 Z M 249.046875 32.476562 L 501.226562 32.476562 L 501.226562 91.546875 C 501.226562 117.722656 479.796875 139.15625 453.617188 139.15625 L 296.675781 139.15625 C 270.5 139.15625 249.066406 117.722656 249.066406 91.546875 L 249.066406 32.476562 Z M 304.164062 102.292969 C 295.078125 102.292969 287.699219 94.933594 287.699219 85.828125 C 287.699219 76.742188 295.078125 69.359375 304.164062 69.359375 L 446.128906 69.359375 C 455.214844 69.359375 462.597656 76.742188 462.597656 85.828125 C 462.597656 94.933594 455.214844 102.292969 446.128906 102.292969 Z M 181.042969 314.699219 C 174.15625 308.808594 173.335938 298.425781 179.25 291.542969 C 185.144531 284.65625 195.523438 283.839844 202.40625 289.75 L 235.96875 318.5625 L 284.265625 255.070312 C 289.75 247.863281 300.023438 246.4375 307.230469 251.917969 C 314.4375 257.402344 315.863281 267.671875 310.382812 274.882812 L 252.152344 351.433594 C 251.785156 351.972656 251.398438 352.511719 250.945312 353.027344 C 245.054688 359.914062 234.671875 360.734375 227.789062 354.820312 L 181.0625 314.699219 Z M 361.898438 628.195312 C 352.789062 628.195312 345.429688 620.8125 345.429688 611.726562 C 345.429688 602.640625 352.789062 595.261719 361.898438 595.261719 L 558.527344 595.261719 C 567.613281 595.261719 574.992188 602.640625 574.992188 611.726562 C 574.992188 620.8125 567.613281 628.195312 558.527344 628.195312 Z M 181.042969 614.511719 C 174.15625 608.621094 173.335938 598.238281 179.25 591.355469 C 185.144531 584.449219 195.523438 583.648438 202.40625 589.5625 L 235.96875 618.375 L 284.265625 554.882812 C 289.75 547.671875 300.023438 546.25 307.230469 551.730469 C 314.4375 557.210938 315.863281 567.484375 310.382812 574.695312 L 252.152344 651.242188 C 251.785156 651.785156 251.398438 652.324219 250.945312 652.839844 C 245.054688 659.726562 234.671875 660.546875 227.789062 654.632812 L 181.0625 614.511719 Z M 361.898438 478.308594 C 352.789062 478.308594 345.429688 470.929688 345.429688 461.84375 C 345.429688 452.757812 352.789062 445.375 361.898438 445.375 L 558.527344 445.375 C 567.613281 445.375 574.992188 452.757812 574.992188 461.84375 C 574.992188 470.929688 567.613281 478.308594 558.527344 478.308594 Z M 181.042969 464.628906 C 174.15625 458.734375 173.335938 448.355469 179.25 441.46875 C 185.144531 434.585938 195.523438 433.765625 202.40625 439.679688 L 235.96875 468.492188 L 284.265625 404.996094 C 289.75 397.789062 300.023438 396.363281 307.230469 401.847656 C 314.4375 407.328125 315.863281 417.601562 310.382812 424.808594 L 252.152344 501.359375 C 251.785156 501.898438 251.398438 502.4375 250.945312 502.957031 C 245.054688 509.839844 234.671875 510.660156 227.789062 504.746094 L 181.0625 464.628906 Z M 361.898438 328.425781 C 352.789062 328.425781 345.429688 321.042969 345.429688 311.957031 C 345.429688 302.871094 352.789062 295.492188 361.898438 295.492188 L 558.527344 295.492188 C 567.613281 295.492188 574.992188 302.871094 574.992188 311.957031 C 574.992188 321.042969 567.613281 328.425781 558.527344 328.425781 Z M 361.898438 328.425781 " fill-opacity="1" fill-rule="evenodd"/></g></svg>